<svg xmlns="http://www.w3.org/2000/svg" width="124" height="36" fill="none" viewBox="0 0 78 24"><path fill="#000" d="M53.103 6.815v.877c.024 0 .048 0 .048-.024.401-.545.945-.853 1.583-1.018.686-.19 1.347-.142 2.01.094.495.166.874.498 1.157.924.024.047.071.095.118.19a.518.518 0 0 1 .071-.119c.473-.616 1.087-1.018 1.844-1.137.756-.142 1.512-.07 2.198.284.874.427 1.37 1.137 1.512 2.108.048.237.048.497.048.734v5.494H61.21V10.44c0-.19-.024-.356-.047-.545-.118-.521-.45-.876-.993-.971-.496-.071-.969 0-1.323.426a1.509 1.509 0 0 0-.355.995v4.855h-2.529v-4.784c0-.237-.023-.474-.094-.687-.213-.544-.591-.781-1.088-.829-.189-.023-.401 0-.59.048-.52.166-.804.544-.922 1.065-.024.119-.024.26-.024.403v4.784h-2.552V6.815h2.41ZM70.758 7.596v-.781h2.458v7.672c0 .948-.236 1.824-.709 2.653-.496.852-1.205 1.397-2.127 1.657a5.748 5.748 0 0 1-3.285-.023c-.851-.26-1.537-.782-2.056-1.516a2.802 2.802 0 0 1-.45-1.018c0-.048-.023-.071-.023-.119 0-.023 0-.07-.024-.118.757-.213 1.49-.426 2.245-.64a.44.44 0 0 1 .048.166 1.772 1.772 0 0 0 1.678 1.256c.307 0 .614-.024.898-.119.638-.237 1.016-.734 1.182-1.373.094-.403.118-.83.094-1.256l-.023-.023h-.024c-.355.45-.827.687-1.394.781-.733.119-1.466.119-2.151-.165-1.23-.474-2.033-1.35-2.387-2.582-.331-1.136-.26-2.25.307-3.291.473-.9 1.182-1.587 2.174-1.919a4.111 4.111 0 0 1 2.27-.07c.52.118.945.402 1.3.828Zm-3.64 3.15v.26c.071.687.426 1.208 1.064 1.469.26.118.567.142.85.118.804-.047 1.372-.521 1.56-1.184.095-.284.119-.592.095-.9-.094-1.137-1.158-1.918-2.363-1.54-.757.261-1.206.924-1.206 1.777ZM50.645 5.654V3.025h22.547c.048.119.048 2.274.024 2.605-.142.048-22.17.071-22.571.024ZM46.911 18.963v-2.629h16.781v2.629h-16.78ZM49.534 15.198h-2.647V6.885h-2.6v-1.8h.213c.757-.047 1.418-.26 2.01-.757.377-.308.614-.71.732-1.184 0-.024.024-.071.024-.095h2.268v12.149ZM21.291 16.027h-3.687c-.165 0-.236-.048-.284-.19-.638-1.847-1.276-3.67-1.89-5.517a4.19 4.19 0 0 0-.095-.26c-.07.212-.142.354-.189.52-.59 1.729-1.182 3.481-1.773 5.21-.047.166-.118.213-.283.213H9.426c.119-.284.213-.568.308-.852 1.134-2.984 2.269-5.968 3.38-8.928.07-.166.141-.237.33-.237h3.735c.165 0 .236.047.307.213a1605.71 1605.71 0 0 0 3.734 9.615c.047.07.047.142.071.213ZM40.955 16.027H37.244c-.165 0-.236-.048-.283-.19-.639-1.847-1.277-3.67-1.891-5.517-.024-.071-.047-.142-.095-.26-.047.118-.07.212-.094.283-.615 1.824-1.253 3.624-1.867 5.447-.048.166-.119.237-.308.237H29.09c.024-.095.047-.166.071-.237 1.205-3.197 2.434-6.394 3.64-9.59.07-.167.142-.214.33-.214h3.759c.142 0 .212.047.283.19 1.253 3.22 2.505 6.464 3.758 9.685 0 .047 0 .095.024.166ZM30.083 6.033V8.97h-2.765v7.08H23.3V8.993h-2.86V6.057c3.191-.024 6.405-.024 9.643-.024ZM.752 6.033h9.667V8.97H7.654v7.08H3.612V8.993H.752v-2.96Z"/></svg>