<?xml version="1.0" encoding="UTF-8"?>
<svg width="16px" height="16px" viewBox="0 0 16 16" version="1.1" xmlns="http://www.w3.org/2000/svg" xmlns:xlink="http://www.w3.org/1999/xlink" style="background: #FFFFFF;">
    <!-- Generator: Sketch 55.2 (78181) - https://sketchapp.com -->
    <title>Artboard Copy</title>
    <desc>Created with Sketch.</desc>
    <g id="Page-1" stroke="none" stroke-width="1" fill="none" fill-rule="evenodd">
        <g id="Artboard-Copy" transform="translate(-80.000000, -482.000000)">
            <g id="Group-13" transform="translate(80.000000, 482.000000)">
                <rect id="Rectangle" x="0" y="0" width="16" height="16"></rect>
                <g id="Group-9" transform="translate(1.000000, 1.000000)">
                    <circle id="Oval" fill="#212121" cx="3.5" cy="13.5" r="1.5"></circle>
                    <circle id="Oval-Copy-7" fill="#212121" cx="9.5" cy="13.5" r="1.5"></circle>
                    <path d="M9.66937383,7.8 L3.25,7.8 C2.93519158,7.8 2.64964905,7.61537231 2.5204628,7.32829174 L0.270462796,2.32829174 C0.0322354542,1.79889765 0.419474056,1.2 1,1.2 L9,1.2 C9.4418278,1.2 9.8,1.5581722 9.8,2 C9.8,2.4418278 9.4418278,2.8 9,2.8 L2.23726849,2.8 L3.76726849,6.2 L10,6.2 C10.008312,6.2 10.0165943,6.20012676 10.0248453,6.20037846 L11.2190504,0.826455634 C11.3003904,0.460425589 11.6250411,0.2 12,0.2 L14,0.2 C14.4418278,0.2 14.8,0.5581722 14.8,1 C14.8,1.4418278 14.4418278,1.8 14,1.8 L12.6417373,1.8 L10.7809496,10.1735444 C10.6996096,10.5395744 10.3749589,10.8 10,10.8 L3,10.8 C2.5581722,10.8 2.2,10.4418278 2.2,10 C2.2,9.5581722 2.5581722,9.2 3,9.2 L9.35826271,9.2 L9.66937383,7.8 Z" id="Combined-Shape" fill="#2B2B2B" fill-rule="nonzero"></path>
                </g>
            </g>
        </g>
    </g>
</svg>