<svg xmlns="http://www.w3.org/2000/svg" width="20" height="21" viewBox="0 0 20 21" fill="none">
  <path fill-rule="evenodd" clip-rule="evenodd" d="M3.51751 4.13836C3.85922 3.79665 4.41324 3.79665 4.75495 4.13836L16.2932 15.6767C16.635 16.0184 16.635 16.5724 16.2932 16.9141C15.9515 17.2558 15.3975 17.2558 15.0558 16.9141L3.51751 5.3758C3.1758 5.03409 3.1758 4.48007 3.51751 4.13836Z" fill="#181A1F"/>
  <path fill-rule="evenodd" clip-rule="evenodd" d="M3.51751 16.9141C3.1758 16.5724 3.1758 16.0184 3.51751 15.6767L15.0558 4.13838C15.3975 3.79667 15.9515 3.79667 16.2932 4.13838C16.635 4.48009 16.635 5.0341 16.2932 5.37581L4.75495 16.9141C4.41324 17.2558 3.85922 17.2558 3.51751 16.9141Z" fill="#181A1F"/>
</svg>