<svg width="24" height="24" fill="none" xmlns="http://www.w3.org/2000/svg"><path fill-rule="evenodd" clip-rule="evenodd" d="M11.998 13.714c-1.014 0-1.722-.707-1.722-1.722 0-1.015.708-1.723 1.722-1.723 1.064 0 1.723.895 1.723 1.723 0 .828-.659 1.722-1.723 1.722Zm0-4.778c-1.742 0-3.056 1.313-3.056 3.056s1.314 3.056 3.056 3.056a3.06 3.06 0 0 0 3.056-3.056 3.06 3.06 0 0 0-3.056-3.056Z" fill="#3B3B3B"/><path fill-rule="evenodd" clip-rule="evenodd" d="M11.998 17.362c-2.91 0-5.37-2.46-5.37-5.37s2.46-5.369 5.37-5.369c2.962 0 5.37 2.41 5.37 5.37s-2.408 5.369-5.37 5.369Zm8.702-6.036h-2.066a6.668 6.668 0 0 0-5.97-5.97V3.31a.667.667 0 0 0-1.332 0v2.05c-3.11.327-5.64 2.858-5.968 5.966H3.3a.666.666 0 1 0 0 1.333h2.063c.329 3.107 2.857 5.636 5.964 5.966l.004 2.066c0 .367.3.666.666.666H12c.368 0 .665-.3.665-.668l-.004-2.062a6.668 6.668 0 0 0 5.973-5.968H20.7a.666.666 0 1 0 0-1.333Z" fill="#3B3B3B"/></svg>