<svg width="18" height="18" viewBox="0 0 18 18" fill="none" xmlns="http://www.w3.org/2000/svg">
<path fill-rule="evenodd" clip-rule="evenodd" d="M9.00017 2.99975C8.84718 2.99975 8.69518 3.00775 8.54717 3.02175C7.28717 3.14975 6.19017 3.87575 5.53917 5.01275C4.84117 6.23175 4.77118 7.71775 5.35217 8.98675L8.99917 14.9697L12.6762 8.93575C13.2292 7.71875 13.1592 6.23275 12.4612 5.01375C11.8102 3.87575 10.7132 3.14975 9.45117 3.02175C9.30417 3.00775 9.15217 2.99975 9.00017 2.99975ZM9.00017 15.9997C8.66017 15.9997 8.35218 15.8267 8.17518 15.5377L4.47017 9.45475C3.72717 7.84175 3.81318 6.01475 4.67218 4.51575C5.48518 3.09575 6.86118 2.18775 8.44618 2.02775C8.81118 1.99075 9.18717 1.99075 9.55218 2.02775C11.1392 2.18775 12.5152 3.09575 13.3282 4.51675C14.1872 6.01575 14.2722 7.84275 13.5572 9.40275L9.82517 15.5357V15.5367C9.64817 15.8257 9.34117 15.9987 9.00117 15.9997H9.00017Z" fill="#767676"/>
<path fill-rule="evenodd" clip-rule="evenodd" d="M9.00991 5.97266C8.16791 5.97266 7.48291 6.65866 7.48291 7.49966C7.48291 8.34166 8.16791 9.02766 9.00991 9.02766C9.85191 9.02766 10.5359 8.34166 10.5359 7.49966C10.5359 6.65866 9.85191 5.97266 9.00991 5.97266ZM9.00991 10.0277C7.61591 10.0277 6.48291 8.89366 6.48291 7.49966C6.48291 6.10666 7.61591 4.97266 9.00991 4.97266C10.4029 4.97266 11.5359 6.10666 11.5359 7.49966C11.5359 8.89366 10.4029 10.0277 9.00991 10.0277Z" fill="#767676"/>
</svg>
