<svg width="48" height="48" viewBox="0 0 48 48" fill="none" xmlns="http://www.w3.org/2000/svg">
<rect width="48" height="48" rx="24" fill="black" fill-opacity="0.16"/>
<path d="M29.3333 33.3337C28.6 33.3337 27.9722 33.0725 27.45 32.5503C26.9278 32.0281 26.6667 31.4003 26.6667 30.667V17.3337C26.6667 16.6003 26.9278 15.9725 27.45 15.4503C27.9722 14.9281 28.6 14.667 29.3333 14.667C30.0667 14.667 30.6944 14.9281 31.2167 15.4503C31.7389 15.9725 32 16.6003 32 17.3337V30.667C32 31.4003 31.7389 32.0281 31.2167 32.5503C30.6944 33.0725 30.0667 33.3337 29.3333 33.3337ZM18.6667 33.3337C17.9333 33.3337 17.3056 33.0725 16.7833 32.5503C16.2611 32.0281 16 31.4003 16 30.667V17.3337C16 16.6003 16.2611 15.9725 16.7833 15.4503C17.3056 14.9281 17.9333 14.667 18.6667 14.667C19.4 14.667 20.0278 14.9281 20.55 15.4503C21.0722 15.9725 21.3333 16.6003 21.3333 17.3337V30.667C21.3333 31.4003 21.0722 32.0281 20.55 32.5503C20.0278 33.0725 19.4 33.3337 18.6667 33.3337Z" fill="black"/>
</svg>
