<svg xmlns="http://www.w3.org/2000/svg" width="96" height="96" fill="none" viewBox="0 0 96 96"><path fill="url(#a)" d="M76.736 29.942H37.148a2 2 0 0 0-1.995 1.867l-2.615 39.263C32.076 77.998 37.57 83.87 44.51 83.87h25.33c6.999 0 12.512-5.964 11.964-12.94l-3.076-39.145a2 2 0 0 0-1.993-1.843"/><path fill="url(#b)" d="M76.736 29.942H37.148a2 2 0 0 0-1.995 1.867l-2.615 39.263C32.076 77.998 37.57 83.87 44.51 83.87h25.33c6.999 0 12.512-5.964 11.964-12.94l-3.076-39.145a2 2 0 0 0-1.993-1.843"/><path fill="#97D1FF" d="M71.29 22.159v9.499l-2.542.153-2.207-.153v-8.977c0-4.702-3.23-9.12-7.884-9.88-5.937-.997-11.115 3.61-11.115 9.358v9.499l-2.22-.155-2.53.155v-8.93c0-6.887 4.655-13.251 11.4-14.534 9.12-1.757 17.099 5.177 17.099 13.965"/><path fill="#0B66AF" d="M47.542 34.744h-4.75v-4.75h4.75zM71.291 29.994v4.75h-4.75v-4.75zM19.132 37.262h16.474c1.045 0 1.895.826 1.895 1.822v5.054c0 .68-.559 1.215-1.263 1.215H18.525c-.705 0-1.264-.535-1.264-1.215v-5.054c0-.996.85-1.822 1.896-1.822z"/><path fill="#0B66AF" d="M41.534 55.514V79.4a4.46 4.46 0 0 1-4.47 4.47H16.75a3.58 3.58 0 0 1-3.572-3.57V55.513c0-1.943.778-3.717 2.09-5.005a6.78 6.78 0 0 1 3.232-1.87c1.02-.268 1.773-1.119 1.773-2.163v-1.58s0-.024.025-.024H34.39s.025 0 .025.024v1.555c0 1.07.753 1.92 1.798 2.187 3.037.802 5.297 3.572 5.297 6.852z"/><path fill="#0B66AF" d="M20.291 41.765h14.13V45.3H20.29z"/><path fill="#fff" d="M35.061 64.358a2.42 2.42 0 0 1-2.41 2.41h-2.856v2.856a2.42 2.42 0 0 1-2.41 2.41 2.42 2.42 0 0 1-2.41-2.41V66.77h-2.856a2.42 2.42 0 0 1-2.41-2.41 2.42 2.42 0 0 1 2.41-2.411h2.855v-2.856a2.404 2.404 0 0 1 2.41-2.41 2.404 2.404 0 0 1 2.411 2.41v2.856h2.856a2.404 2.404 0 0 1 2.41 2.41"/><path fill="#0B66AF" d="M83.416 54.508v1.545a.52.52 0 0 1-.518.519H81.8v25.455a3.92 3.92 0 0 1-3.914 3.914c-2.155 0-4.283-1.586-4.283-3.914V56.572H72.52a.52.52 0 0 1-.519-.519v-1.545c0-.284.234-.508.519-.508h10.379c.284 0 .518.224.518.508"/><path fill="#6BBDFF" d="M73.604 68.05h8.195v13.977c0 2.166-1.655 3.914-4.092 3.914-2.264 0-4.093-1.759-4.093-3.914V68.05z"/><defs><linearGradient id="a" x1="56.589" x2="56.752" y1="29.883" y2="90.176" gradientUnits="userSpaceOnUse"><stop stop-color="#F8C6DD"/><stop offset=".491" stop-color="#E79ABD"/><stop offset="1" stop-color="#B1527F"/></linearGradient><linearGradient id="b" x1="57.893" x2="58.862" y1="85.662" y2="31.716" gradientUnits="userSpaceOnUse"><stop stop-color="#0B66AF"/><stop offset=".2" stop-color="#2F8AD3"/><stop offset="1" stop-color="#6BBDFF"/></linearGradient></defs></svg>